/* XPM */
static char *_ddf4e5203bf483ef0308f0b0e46215do5U77aCemfgKtPBU[] = {
/* columns rows colors chars-per-pixel */
"32 32 6 1 ",
"  c black",
". c white",
"X c gray91",
"o c gray60",
"O c gray8",
"+ c #cbf2b7",
/* pixels */
"++++++++++++++++++++++++++++++++",
"++++++++++++++++++++++++++++++++",
"++++++++++OOOOOOOOOOOO++++++++++",
"++++++++++OOOOOOOOOOOO++++++++++",
"++++++++OOooooooooooooOO++++++++",
"++++++++OOooooooooooooOO++++++++",
"++++++OOooooooooooooooooOO++++++",
"++++++OOooooooooooooooooOO++++++",
"++++++OOooooooooooooooooOO++++++",
"++++++OOooooooooooooooooOO++++++",
"++++OOOOOOooXXXXXXXXooOOOOOO++++",
"++++OOOOOOooXXXXXXXXooOOOOOO++++",
"++++OOOOOOOOOOOOOOOOOOOOOOOO++++",
"++++OOOOOOOOOOOOOOOOOOOOOOOO++++",
"++OOXXOOXXXXXXXXXXXXXXXXOOXXOO++",
"++OOXXOOXXXXXXXXXXXXXXXXOOXXOO++",
"++OOXXXXXXXXOOXXXXOOXXXXXXXXOO++",
"++OOXXXXXXXXOOXXXXOOXXXXXXXXOO++",
"++OOOOOOXXXXOOXXXXOOXXXXOOOO++++",
"++OOOOOOXXXXOOXXXXOOXXXXOOOO++++",
"++OOXXOOOOXXXXooooXXXXOOooOO++++",
"++OOXXOOOOXXXXooooXXXXOOooOO++++",
"++++OOOOOOOOOOOOOOOOOOOOXXOO++++",
"++++OOOOOOOOOOOOOOOOOOOOXXOO++++",
"++++++OOOOooOOOOOOOOXXXXOOOO++++",
"++++++OOOOooOOOOOOOOXXXXOOOO++++",
"++++++++OOOOOOooooOOXXXXOO++++++",
"++++++++OOOOOOooooOOXXXXOO++++++",
"++++++++OOooooOOOO++OOOO++++++++",
"++++++++OOooooOOOO++OOOO++++++++",
"++++++++++OOOOOO++++++++++++++++",
"++++++++++OOOOOO++++++++++++++++"
};
