/* XPM */
static char *_e811704e3504c82dc1c7d1add1f055fmcfaviKfdEoYKhx1[] = {
/* columns rows colors chars-per-pixel */
"32 32 4 1 ",
"  c None",
". c gray8",
"X c gray60",
"o c gray91",
/* pixels */
"          ............          ",
"          ............          ",
"        ..XXXXXXXXXXXX..        ",
"        ..XXXXXXXXXXXX..        ",
"      ..XXXXXXXXXXXXXXXX..      ",
"      ..XXXXXXXXXXXXXXXX..      ",
"      ..XXXXXXXXXXXXXXXX..      ",
"      ..XXXXXXXXXXXXXXXX..      ",
"    ......XXooooooooXX......    ",
"    ......XXooooooooXX......    ",
"    ....oo............oo....    ",
"    ....oo............oo....    ",
"  ..oo..oooooooooooooooo..oo..  ",
"  ..oo..oooooooooooooooo..oo..  ",
"  ..oooooooo..oooo..oooooooo..  ",
"  ..oooooooo..oooo..oooooooo..  ",
"    ....oooo..oooo..oooo....    ",
"    ....oooo..oooo..oooo....    ",
"    ......ooooXXXXoooo......    ",
"    ......ooooXXXXoooo......    ",
"  ..oooo................oooo..  ",
"  ..oooo................oooo..  ",
"  ..oooo................oooo..  ",
"  ..oooo................oooo..  ",
"    ......XXXX....XXXX......    ",
"    ......XXXX....XXXX......    ",
"      ..XX....XXXX....XX..      ",
"      ..XX....XXXX....XX..      ",
"      ..XXXXXX....XXXXXX..      ",
"      ..XXXXXX....XXXXXX..      ",
"        ......    ......        ",
"        ......    ......        "
};
