/* XPM */
static char *_c7ab44419c5476fb0f5575535d6ff73YDiR7dNO0Oxts9MN[] = {
/* columns rows colors chars-per-pixel */
"32 32 4 1 ",
"  c #cbf2b7",
". c gray8",
"X c gray60",
"o c gray91",
/* pixels */
"                                ",
"                                ",
"          ............          ",
"          ............          ",
"        ..XXXXXXXXXXXX..        ",
"        ..XXXXXXXXXXXX..        ",
"      ..XXXXXXXXXXXXXXXX..      ",
"      ..XXXXXXXXXXXXXXXX..      ",
"      ..XXXXXXXXXXXXXXXX..      ",
"      ..XXXXXXXXXXXXXXXX..      ",
"    ......XXooooooooXX......    ",
"    ......XXooooooooXX......    ",
"    ........................    ",
"    ........................    ",
"  ..oo..oooooooooooooooo..oo..  ",
"  ..oo..oooooooooooooooo..oo..  ",
"  ..oooooooo..oooo..oooooooo..  ",
"  ..oooooooo..oooo..oooooooo..  ",
"    ....oooo..oooo..oooo......  ",
"    ....oooo..oooo..oooo......  ",
"    ..XX..ooooXXXXoooo....oo..  ",
"    ..XX..ooooXXXXoooo....oo..  ",
"    ..oo....................    ",
"    ..oo....................    ",
"    ....oooo........XX....      ",
"    ....oooo........XX....      ",
"      ..oooo..XXXX......        ",
"      ..oooo..XXXX......        ",
"        ....  ....XXXX..        ",
"        ....  ....XXXX..        ",
"                ......          ",
"                ......          "
};
