/* XPM */
static char *_937626b8cb645988230ac28966e7628WdGeMOFfY4TNDKi9[] = {
/* columns rows colors chars-per-pixel */
"32 32 4 1 ",
"  c #cbf2b7",
". c gray8",
"X c gray60",
"o c gray91",
/* pixels */
"                                ",
"                                ",
"          ............          ",
"          ............          ",
"        ..XXXXXXXXXXXX..        ",
"        ..XXXXXXXXXXXX..        ",
"      ..XXXXXXXXXXXXXXXX..      ",
"      ..XXXXXXXXXXXXXXXX..      ",
"      ..XXXXXXXXXXXXXXXX..      ",
"      ..XXXXXXXXXXXXXXXX..      ",
"    ....XXXXXXXXXXXXXXXX....    ",
"    ....XXXXXXXXXXXXXXXX....    ",
"    ......XXXXXXXXXXXX......    ",
"    ......XXXXXXXXXXXX......    ",
"  ..oo....................oo..  ",
"  ..oo....................oo..  ",
"  ..oooo................oooo..  ",
"  ..oooo................oooo..  ",
"  ......oooo........oooo....    ",
"  ......oooo........oooo....    ",
"  ..oo......XXXXXXXX........    ",
"  ..oo......XXXXXXXX........    ",
"    ......XX........XX..oooo..  ",
"    ......XX........XX..oooo..  ",
"      ....XXXXooooXXXX..oooo..  ",
"      ....XXXXooooXXXX..oooo..  ",
"        ....XXXXXXXX........    ",
"        ....XXXXXXXX........    ",
"        ..XX........            ",
"        ..XX........            ",
"          ......                ",
"          ......                "
};
