/* XPM */
static char *dc2b7619af994ffbaa5faf484184d3f3cX8l4sclg4VfISZo[] = {
/* columns rows colors chars-per-pixel */
"32 32 5 1 ",
"  c None",
". c gray8",
"X c gray60",
"o c gray69",
"O c gray91",
/* pixels */
"          ............          ",
"          ............          ",
"        ..XXXXXXXXXXXX..        ",
"        ..XXXXXXXXXXXX..        ",
"      ..XXXXXXXXXXXXXXXX..      ",
"      ..XXXXXXXXXXXXXXXX..      ",
"      ..XXXXXXXXXXXXXXXX..      ",
"      ..XXXXXXXXXXXXXXXX..      ",
"    ....XXXXXXXXXXXXXXXX....    ",
"    ....XXXXXXXXXXXXXXXX....    ",
"    ......XXXXXXXXXXXX......    ",
"    ......XXXXXXXXXXXX......    ",
"  ..OO....................OO..  ",
"  ..OO....................OO..  ",
"  ..OOOO................OOOO..  ",
"  ..OOOO................OOOO..  ",
"    ....OOOO........OOOO....    ",
"    ....OOOO........OOOO....    ",
"    ........XXXXXXXX........    ",
"    ........XXXXXXXX........    ",
"  ..OO....XX........XX....OO..  ",
"  ..OO....XX........XX....OO..  ",
"  ..OO....XXXXOOOOXXXX....OO..  ",
"  ..OO....XXXXOOOOXXXX....OO..  ",
"    ........XXXXXXXX........    ",
"    ........XXXXXXXX........    ",
"      ..XX............oo..      ",
"      ..XX............oo..      ",
"      ..XXXXXX....XXXXXX..      ",
"      ..XXXXXX....XXXXXX..      ",
"        ......    ......        ",
"        ......    ......        "
};
