/* XPM */
static char *_58be8c84ff5400af5bc6865ccba7183HyGWR2wORZLraep6[] = {
/* columns rows colors chars-per-pixel */
"32 32 4 1 ",
"  c #cbf2b7",
". c gray8",
"X c gray60",
"o c gray91",
/* pixels */
"                                ",
"                                ",
"          ............          ",
"          ............          ",
"        ..XXXXXXXXXXXX..        ",
"        ..XXXXXXXXXXXX..        ",
"      ..XXXXXXXXXXXXXXXX..      ",
"      ..XXXXXXXXXXXXXXXX..      ",
"      ..XXXXXXXXXXXXXXXX..      ",
"      ..XXXXXXXXXXXXXXXX..      ",
"    ....XXXXXXXXXXXXXXXX....    ",
"    ....XXXXXXXXXXXXXXXX....    ",
"    ......XXXXXXXXXXXX......    ",
"    ......XXXXXXXXXXXX......    ",
"  ..oo....................oo..  ",
"  ..oo....................oo..  ",
"  ..oooo................oooo..  ",
"  ..oooo................oooo..  ",
"    ....oooo........oooo......  ",
"    ....oooo........oooo......  ",
"    ........XXXXXXXX......oo..  ",
"    ........XXXXXXXX......oo..  ",
"  ..oooo..XX........XX......    ",
"  ..oooo..XX........XX......    ",
"  ..oooo..XXXXooooXXXX....      ",
"  ..oooo..XXXXooooXXXX....      ",
"    ........XXXXXXXX....        ",
"    ........XXXXXXXX....        ",
"            ........XX..        ",
"            ........XX..        ",
"                ......          ",
"                ......          "
};
