/* XPM */
static char *cdeba0224e434455bedfcdc16debbc01vuMaTrDD1SgJA28b[] = {
/* columns rows colors chars-per-pixel */
"32 32 4 1 ",
"  c #cbf2b7",
". c gray8",
"X c gray60",
"o c gray91",
/* pixels */
"          ............          ",
"          ............          ",
"        ..XXXXXXXXXXXX..        ",
"        ..XXXXXXXXXXXX..        ",
"      ..XXXXXXXXXXXXXXXX..      ",
"      ..XXXXXXXXXXXXXXXX..      ",
"    ....ooXXXXXXXXXXXXXX..      ",
"    ....ooXXXXXXXXXXXXXX..      ",
"  ..ooooooooXXXXXXXXXX......    ",
"  ..ooooooooXXXXXXXXXX......    ",
"    ....XXXXXX..............    ",
"    ....XXXXXX..............    ",
"      ..oo..oooo............    ",
"      ..oo..oooo............    ",
"      ..oo..oooo..oooo....      ",
"      ..oo..oooo..oooo....      ",
"      ..oooooooooooooo..        ",
"      ..oooooooooooooo..        ",
"        ..XXoooooo....XX..      ",
"        ..XXoooooo....XX..      ",
"          ..........XXXX..      ",
"          ..........XXXX..      ",
"            ....oooo..XX..      ",
"            ....oooo..XX..      ",
"            ....oooo..XX..      ",
"            ....oooo..XX..      ",
"          ..XXXX........        ",
"          ..XXXX........        ",
"          ..XXXXXXXX..          ",
"          ..XXXXXXXX..          ",
"            ........            ",
"            ........            "
};
