/* XPM */
static char *_15ce007cdef4e5f938820833f0f47993VdAwC1fEuvEE3VG[] = {
/* columns rows colors chars-per-pixel */
"32 32 4 1 ",
"  c None",
". c gray8",
"X c gray60",
"o c gray91",
/* pixels */
"                                ",
"                                ",
"          ............          ",
"          ............          ",
"        ..XXXXXXXXXXXX..        ",
"        ..XXXXXXXXXXXX..        ",
"      ..XXXXXXXXXXXXXXXX..      ",
"      ..XXXXXXXXXXXXXXXX..      ",
"    ....ooXXXXXXXXXXXXXX..      ",
"    ....ooXXXXXXXXXXXXXX..      ",
"  ..ooooooooXXXXXXXXXX......    ",
"  ..ooooooooXXXXXXXXXX......    ",
"    ....XXXXXX..............    ",
"    ....XXXXXX..............    ",
"      ..oo..oooo............    ",
"      ..oo..oooo............    ",
"      ..oo..oooo..oooo....      ",
"      ..oo..oooo..oooo....      ",
"      ..oooooooooooooo..        ",
"      ..oooooooooooooo..        ",
"        ..XXoooooo....XX..      ",
"        ..XXoooooo....XX..      ",
"          ............XX..      ",
"          ............XX..      ",
"      ............oooo....      ",
"      ............oooo....      ",
"    ..XXXX..XXXX..oooo..XX..    ",
"    ..XXXX..XXXX..oooo..XX..    ",
"      ..XXXX..........XXXX..    ",
"      ..XXXX..........XXXX..    ",
"        ......        ....      ",
"        ......        ....      "
};
