/* XPM */
static char *_925784b90854b609435040fe9f6fdb5dP8bQxW5bQma3z6d[] = {
/* columns rows colors chars-per-pixel */
"32 32 4 1 ",
"  c None",
". c gray8",
"X c gray60",
"o c gray91",
/* pixels */
"          ............          ",
"          ............          ",
"        ..XXXXXXXXXXXX..        ",
"        ..XXXXXXXXXXXX..        ",
"      ..XXXXXXXXXXXXXXXX..      ",
"      ..XXXXXXXXXXXXXXXX..      ",
"      ..XXXXXXXXXXXXXXoo....    ",
"      ..XXXXXXXXXXXXXXoo....    ",
"    ......XXXXXXXXXXoooooooo..  ",
"    ......XXXXXXXXXXoooooooo..  ",
"    ..............XXXXXX....    ",
"    ..............XXXXXX....    ",
"    ............oooo..oo..      ",
"    ............oooo..oo..      ",
"      ....oooo..oooo..oo..      ",
"      ....oooo..oooo..oo..      ",
"        ..oooooooooooooo..      ",
"        ..oooooooooooooo..      ",
"      ..XX....ooooooXX..        ",
"      ..XX....ooooooXX..        ",
"      ..XXXX..........          ",
"      ..XXXX..........          ",
"      ..XX..oooo....            ",
"      ..XX..oooo....            ",
"      ..XX..oooo....            ",
"      ..XX..oooo....            ",
"        ........XXXX..          ",
"        ........XXXX..          ",
"          ..XXXXXXXX..          ",
"          ..XXXXXXXX..          ",
"            ........            ",
"            ........            "
};
