/* XPM */
static char *_251fb5526e74ba6b0b5e802e292731bLAsBFlafVwBc7bUq[] = {
/* columns rows colors chars-per-pixel */
"32 32 4 1 ",
"  c None",
". c gray8",
"X c gray60",
"o c gray91",
/* pixels */
"                                ",
"                                ",
"          ............          ",
"          ............          ",
"        ..XXXXXXXXXXXX..        ",
"        ..XXXXXXXXXXXX..        ",
"      ..XXXXXXXXXXXXXXXX..      ",
"      ..XXXXXXXXXXXXXXXX..      ",
"      ..XXXXXXXXXXXXXXoo....    ",
"      ..XXXXXXXXXXXXXXoo....    ",
"    ......XXXXXXXXXXoooooooo..  ",
"    ......XXXXXXXXXXoooooooo..  ",
"    ..............XXXXXX....    ",
"    ..............XXXXXX....    ",
"    ............oooo..oo..      ",
"    ............oooo..oo..      ",
"      ....oooo..oooo..oo..      ",
"      ....oooo..oooo..oo..      ",
"        ..oooooooooooooo..      ",
"        ..oooooooooooooo..      ",
"      ..XX....ooooooXX..        ",
"      ..XX....ooooooXX..        ",
"      ..XX............          ",
"      ..XX............          ",
"      ....oooo............      ",
"      ....oooo............      ",
"    ..XX..oooo..XXXX..XXXX..    ",
"    ..XX..oooo..XXXX..XXXX..    ",
"    ..XXXX..........XXXX..      ",
"    ..XXXX..........XXXX..      ",
"      ....        ......        ",
"      ....        ......        "
};
