/* XPM */  
static char *harappa1707451374[] = {
/* columns rows colors chars-per-pixel */
"32 32 2 1 ",
"  c #A8E058",
". c #F8E8F8",
/* pixels */
"  ..  ..  ..      ..  ..  ..    ",
"  ..  ..  ..      ..  ..  ..    ",
"..  ......  ..  ..  ......  ..  ",
"..  ......  ..  ..  ......  ..  ",
"  ......      ..  ......      ..",
"  ......      ..  ......      ..",
"..  ..      ..  ..  ..      ..  ",
"..  ..      ..  ..  ..      ..  ",
"  ..      ..  ..  ..      ..  ..",
"  ..      ..  ..  ..      ..  ..",
"..  ..  ....    ..  ..  ....    ",
"..  ..  ....    ..  ..  ....    ",
"....  ....    ......  ....    ..",
"....  ....    ......  ....    ..",
"..          ..  ..          ..  ",
"..          ..  ..          ..  ",
"  ..  ..  ..      ..  ..  ..    ",
"  ..  ..  ..      ..  ..  ..    ",
"..  ......  ..  ..  ......  ..  ",
"..  ......  ..  ..  ......  ..  ",
"  ......      ..  ......      ..",
"  ......      ..  ......      ..",
"..  ..      ..  ..  ..      ..  ",
"..  ..      ..  ..  ..      ..  ",
"  ..      ..  ..  ..      ..  ..",
"  ..      ..  ..  ..      ..  ..",
"..  ..  ....    ..  ..  ....    ",
"..  ..  ....    ..  ..  ....    ",
"....  ....    ......  ....    ..",
"....  ....    ......  ....    ..",
"..          ..  ..          ..  ",
"..          ..  ..          ..  ",
};
