/* XPM */
static char *kabigon1707451506[] = {
/* columns rows colors chars-per-pixel */
"32 32 4 1 ",
"  c #A8E058",
". c gray8",
"X c gray60",
"o c gray91",
/* pixels */
"    ..XX                XX..    ",
"    ..XX                XX..    ",
"    ....XX............XX....    ",
"    ....XX............XX....    ",
"    ......XX........XX......    ",
"    ......XX........XX......    ",
"    XX..XXooooooooooooXX..XX    ",
"    XX..XXooooooooooooXX..XX    ",
"    ..XX....oooooooo....XX..    ",
"    ..XX....oooooooo....XX..    ",
"  ....oooooooo....oooooooo....  ",
"  ....oooooooo....oooooooo....  ",
"..ooXX..XXXXXXXXXXXXXXXX..XXoo..",
"..ooXX..XXXXXXXXXXXXXXXX..XXoo..",
"..XX..XXooooooooooooooooXX..XX..",
"..XX..XXooooooooooooooooXX..XX..",
"  ..XXooooooooooooooooooXXXX..  ",
"  ..XXooooooooooooooooooXXXX..  ",
"  ..XXooooooooooooooooXXXXXX..  ",
"  ..XXooooooooooooooooXXXXXX..  ",
"  ....XXooooooooooXXXXXXXX....  ",
"  ....XXooooooooooXXXXXXXX....  ",
"XXoooo....XXXXXXXXXXXX....ooooXX",
"XXoooo....XXXXXXXXXXXX....ooooXX",
"..ooooXX................XXoooo..",
"..ooooXX................XXoooo..",
"..XXXXXX................XXXXXX..",
"..XXXXXX................XXXXXX..",
"  ......XXXXXXXXXXXXXXXX......  ",
"  ......XXXXXXXXXXXXXXXX......  ",
"                                ",
"                                ",
};
