/* XPM */
static char *_4dd57993e674b91e362fb62e0a3145buapGJ5AwkwhBA4ln[] = {
/* columns rows colors chars-per-pixel */
"32 32 4 1 ",
"  c #cbf2b7",
". c gray8",
"X c gray60",
"o c gray91",
/* pixels */
"              ....              ",
"              ....              ",
"  ............oooo............  ",
"  ............oooo............  ",
"  ..oooo..XX..oooo..XX..oooo..  ",
"  ..oooo..XX..oooo..XX..oooo..  ",
"    ..ooXXXXXXXXXXXXXXXXoo..    ",
"    ..ooXXXXXXXXXXXXXXXXoo..    ",
"      ..XX..XXXXXXXX..XX..      ",
"      ..XX..XXXXXXXX..XX..      ",
"    ..XXXX....oooo....XXXX..    ",
"    ..XXXX....oooo....XXXX..    ",
"    ..XXXXXXXXXXXXXXXXXXXX..    ",
"    ..XXXXXXXXXXXXXXXXXXXX..    ",
"      ......XXooooXX......      ",
"      ......XXooooXX......      ",
"    ..XX..oo........oo..XX..    ",
"    ..XX..oo........oo..XX..    ",
"  ..XX..XX..oooooooo..XX..XX..  ",
"  ..XX..XX..oooooooo..XX..XX..  ",
"..XXXX..XXXX........XXXX..XXXX..",
"..XXXX..XXXX........XXXX..XXXX..",
"  ......XXooooooooooooXX......  ",
"  ......XXooooooooooooXX......  ",
"      ....oooooooooooo....      ",
"      ....oooooooooooo....      ",
"    ..XX....oooooooo....XX..    ",
"    ..XX....oooooooo....XX..    ",
"    ..ooXXoo........ooXXoo..    ",
"    ..ooXXoo........ooXXoo..    ",
"      ......        ......      ",
"      ......        ......      "
};
