/* XPM */
static char *_8d2c808720747b7fa80f5e29c9383ffyQ5II3y3NKFaeCzb[] = {
/* columns rows colors chars-per-pixel */
"32 32 4 1 ",
"  c #cbf2b7",
". c gray8",
"X c gray60",
"o c gray91",
/* pixels */
"                                ",
"                                ",
"              ....              ",
"              ....              ",
"  ............oooo............  ",
"  ............oooo............  ",
"  ..oooo..XX..oooo..XX..oooo..  ",
"  ..oooo..XX..oooo..XX..oooo..  ",
"    ..ooXXXXXXXXXXXXXXXXoo..    ",
"    ..ooXXXXXXXXXXXXXXXXoo..    ",
"      ..XX..XXXXXXXX..XX..      ",
"      ..XX..XXXXXXXX..XX..      ",
"    ..XXXX....oooo....XXXX..    ",
"    ..XXXX....oooo....XXXX..    ",
"......XXXXXXXXXXXXXXXXXXXX......",
"......XXXXXXXXXXXXXXXXXXXX......",
"..XXXX......XXooooXX......XXXX..",
"..XXXX......XXooooXX......XXXX..",
"..XXXXXX..oo........oo..XXXXXX..",
"..XXXXXX..oo........oo..XXXXXX..",
"  ..XX..XX..oooooooo..XX..XX..  ",
"  ..XX..XX..oooooooo..XX..XX..  ",
"    ....XXXX........XXXX....    ",
"    ....XXXX........XXXX....    ",
"    ....XXooooooooooooXX..      ",
"    ....XXooooooooooooXX..      ",
"    ..XX....oooooooo......      ",
"    ..XX....oooooooo......      ",
"    ..ooXXoo............        ",
"    ..ooXXoo............        ",
"      ......                    ",
"      ......                    "
};
