/* XPM */
static char *e1c57abea2fc484cbe65193f76b4740fhDwqCkRPzHJHj3LY[] = {
/* columns rows colors chars-per-pixel */
"32 32 3 1 ",
"  c #A8E058",
". c #A0D0F8",
"X c #F8E8F8",
/* pixels */
"    XX  XX  XX      XXXX....XXXX",
"    XX  XX  XX      XXXX....XXXX",
"  XX  XXXXXX  XX  XXXX..XXXX..  ",
"  XX  XXXXXX  XX  XXXX..XXXX..  ",
"XX  XXXXXX      XXXX..XX....  ..",
"XX  XXXXXX      XXXX..XX....  ..",
"  XX  XX      XX  XX..XX      ..",
"  XX  XX      XX  XX..XX      ..",
"XX  XX      XX  XX    ..    ..XX",
"XX  XX      XX  XX    ..    ..XX",
"XXXX  XX  XXXX    ....XX....XX..",
"XXXX  XX  XXXX    ....XX....XX..",
"  XXXX  XXXX    XXXX............",
"  XXXX  XXXX    XXXX............",
"  XX          XX    XX  ....  XX",
"  XX          XX    XX  ....  XX",
"    XXXX....XXXX    XX  XX  XX  ",
"    XXXX....XXXX    XX  XX  XX  ",
"XXXXXX..XXXX..  XXXX  XXXXXX  XX",
"XXXXXX..XXXX..  XXXX  XXXXXX  XX",
"XXXX..XX....  ..    XXXXXX      ",
"XXXX..XX....  ..    XXXXXX      ",
"XXXX..XX      ..XXXX  XX      XX",
"XXXX..XX      ..XXXX  XX      XX",
"      ..    ..XX    XX      XX  ",
"      ..    ..XX    XX      XX  ",
"XX....XX....XX....XX  XX  XXXX  ",
"XX....XX....XX....XX  XX  XXXX  ",
"  XX............XXXXXX  XXXX    ",
"  XX............XXXXXX  XXXX    ",
"XX  XX  ....  XX  XX          XX",
"XX  XX  ....  XX  XX          XX",
};
