/* XPM */
static char *b6ba435dfdfb412edd5f2aba3f15b0e1ZPWkcIgG2DBJvTc6[] = {
/* columns rows colors chars-per-pixel */
"32 32 4 1 ",
"  c #cbf2b7",
". c gray8",
"X c gray60",
"o c gray91",
/* pixels */
"                                ",
"                                ",
"          ............          ",
"          ............          ",
"    ......oooooooooooo..        ",
"    ......oooooooooooo..        ",
"      ..oo....oo......oo..      ",
"      ..oo....oo......oo..      ",
"      ....oooo..oooooo....      ",
"      ....oooo..oooooo....      ",
"    ....oooooooooooooooo....    ",
"    ....oooooooooooooooo....    ",
"  ..oo..ooXXooooooooXXoo..oo..  ",
"  ..oo..ooXXooooooooXXoo..oo..  ",
"  ..oooooooo..XXXX..oooooooo..  ",
"  ..oooooooo..XXXX..oooooooo..  ",
"  ..ooXXoooo..oooo..ooooXXoo..  ",
"  ..ooXXoooo..oooo..ooooXXoo..  ",
"    ....oooooooooooooooo....    ",
"    ....oooooooooooooooo....    ",
"  ....oo..ooooXXXXoooo..XXoo..  ",
"  ....oo..ooooXXXXoooo..XXoo..  ",
"  ..oo..oo................oo..  ",
"  ..oo..oo................oo..  ",
"    ..oooooo..XXXX....oooo..    ",
"    ..oooooo..XXXX....oooo..    ",
"    ..oooo............oooo..    ",
"    ..oooo............oooo..    ",
"      ..............  ....      ",
"      ..............  ....      ",
"          ........              ",
"          ........              "
};
