/* XPM */
static char *_36e64521f53485ebd6c2d3e64c7d64caehrCwL8xLuJVBuU[] = {
/* columns rows colors chars-per-pixel */
"32 32 4 1 ",
"  c #cbf2b7",
". c gray8",
"X c gray60",
"o c gray91",
/* pixels */
"          ............          ",
"          ............          ",
"    ......oooooooooooo..        ",
"    ......oooooooooooo..        ",
"      ..oo....oo......oo..      ",
"      ..oo....oo......oo..      ",
"      ....oooo..oooooo....      ",
"      ....oooo..oooooo....      ",
"    ....oooooooooooooooo....    ",
"    ....oooooooooooooooo....    ",
"  ..oo..ooXXooooooooXXoo..oo..  ",
"  ..oo..ooXXooooooooXXoo..oo..  ",
"  ..oooooooo..XXXX..oooooooo..  ",
"  ..oooooooo..XXXX..oooooooo..  ",
"  ..ooXXoooo..oooo..ooooXXoo..  ",
"  ..ooXXoooo..oooo..ooooXXoo..  ",
"    ....oooooooooooooooo....    ",
"    ....oooooooooooooooo....    ",
"  ....oo..ooooXXXXoooo..oo....  ",
"  ....oo..ooooXXXXoooo..oo....  ",
"..oooo..oo............oo..oooo..",
"..oooo..oo............oo..oooo..",
"..oooo..oooo........oooo..oooo..",
"..oooo..oooo........oooo..oooo..",
"  ......oooo..XXXX..oooo......  ",
"  ......oooo..XXXX..oooo......  ",
"    ..oooooo........oooooo..    ",
"    ..oooooo........oooooo..    ",
"      ....................      ",
"      ....................      ",
"    ..........    ..........    ",
"    ..........    ..........    "
};
