/* XPM */
static char *result[] = {
/* columns rows colors chars-per-pixel */
"32 32 4 1 ",
"  c gray8",
". c gray60",
"X c gray91",
"o c #A8E058",
/* pixels */
"oooooooooo            oooooooooo",
"oooooooooo            oooooooooo",
"oooooooo  ............  oooooooo",
"oooooooo  ............  oooooooo",
"oooooo  ................  oooooo",
"oooooo  ................  oooooo",
"oooooo  ................  oooooo",
"oooooo  ................  oooooo",
"oooo      ..XXXXXXXX..      oooo",
"oooo      ..XXXXXXXX..      oooo",
"oooo    XX            XX    oooo",
"oooo    XX            XX    oooo",
"oo  XX  XXXXXXXXXXXXXXXX  XX  oo",
"oo  XX  XXXXXXXXXXXXXXXX  XX  oo",
"oo  XXXXXXXX  XXXX  XXXXXXXX  oo",
"oo  XXXXXXXX  XXXX  XXXXXXXX  oo",
"oooo    XXXX  XXXX  XXXX    oooo",
"oooo    XXXX  XXXX  XXXX    oooo",
"oooo      XXXX....XXXX      oooo",
"oooo      XXXX....XXXX      oooo",
"oo  XXXX                XXXX  oo",
"oo  XXXX                XXXX  oo",
"oo  XXXX                XXXX  oo",
"oo  XXXX                XXXX  oo",
"oooo      ....    ....      oooo",
"oooo      ....    ....      oooo",
"oooooo  ..    ....    ..  oooooo",
"oooooo  ..    ....    ..  oooooo",
"oooooo  ......    ......  oooooo",
"oooooo  ......    ......  oooooo",
"oooooooo      oooo      oooooooo",
"oooooooo      oooo      oooooooo",
};
