/* XPM */
static char *_392e8bd87894f80ec6aa240b51f1908uJgGdqwqW5Gvcj8y[] = {
/* columns rows colors chars-per-pixel */
"32 32 4 1 ",
"  c #181010",
". c #A8E058",
"X c #A0D0F8",
"o c #F8E8F8",
/* pixels */
"..oo..oo..        XXoo..oo..oo..",
"..oo..oo..        XXoo..oo..oo..",
"oo..XXXX  ..oooooo    XX..oo..oo",
"oo..XXXX  ..oooooo    XX..oo..oo",
"..oo..  ..oooooo..oo    ..XX..oo",
"..oo..  ..oooooo..oo    ..XX..oo",
"oo..XX  oooooo..ooXXoo  XX..XXoo",
"oo..XX  oooooo..ooXXoo  XX..XXoo",
"..XX  ....oo..oooooo  oo  XXoo..",
"..XX  ....oo..oooooo  oo  XXoo..",
"oo  XXXX..XX..oo..XXXX  XX  ..oo",
"oo  XXXX..XX..oo..XXXX  XX  ..oo",
"..    ..XX..XX..  XX  XX    oo..",
"..    ..XX..XX..  XX  XX    oo..",
"oo..    ......XXXX  ..    XX..oo",
"oo..    ......XXXX  ..    XX..oo",
"..  ..  XX..XX..  XX  XX    XX..",
"..  ..  XX..XX..  XX  XX    XX..",
"  XX  XX..XX..  ..  XX  XX    ..",
"  XX  XX..XX..  ..  XX  XX    ..",
"    ..  XX  XX..      XX      oo",
"    ..  XX  XX..      XX      oo",
"XX    XX  XX    XX          XX..",
"XX    XX  XX    XX          XX..",
"..XX                      XX..oo",
"..XX                      XX..oo",
"XX..XX        XXXX      XX..XXoo",
"XX..XX        XXXX      XX..XXoo",
"..XX..XXXX  XX....XX  XX..XXoo..",
"..XX..XXXX  XX....XX  XX..XXoo..",
"oo..oo....XX        XX....oo....",
"oo..oo....XX        XX....oo....",
};
